<!DOCTYPE svg PUBLIC "-//W3C//DTD SVG 20010904//EN" "http://www.w3.org/TR/2001/REC-SVG-20010904/DTD/svg10.dtd">
<svg version="1.0" xmlns="http://www.w3.org/2000/svg" width="564px" height="55px" viewBox="0 0 5640 550" preserveAspectRatio="xMidYMid meet">
<g id="layer101" fill="#fff8f8" stroke="none">
<path d="M85 458 c-3 -8 -5 -55 -3 -104 3 -81 5 -89 23 -89 18 0 21 8 25 76 l5 77 75 -2 c85 -1 118 -16 151 -69 28 -45 22 -127 -12 -163 -38 -41 -58 -47 -164 -53 -84 -5 -100 -9 -103 -24 -3 -15 7 -17 103 -17 67 0 117 5 138 14 136 58 146 262 16 335 -35 20 -61 25 -146 29 -84 4 -104 2 -108 -10z"/>
<path d="M514 456 c-6 -16 138 -341 161 -365 12 -12 18 -13 39 -1 14 7 23 16 21 20 -3 4 29 80 71 170 72 156 81 190 51 190 -21 0 -28 -12 -98 -169 l-63 -143 -23 48 c-13 27 -45 97 -72 157 -48 104 -73 130 -87 93z"/>
<path d="M995 458 c-3 -8 -4 -95 -3 -193 l3 -180 25 0 25 0 0 190 c0 190 0 190 -23 193 -12 2 -24 -3 -27 -10z"/>
<path d="M1243 463 c-17 -3 -23 -14 -28 -46 -8 -54 -2 -323 7 -332 4 -4 19 -4 34 -1 l26 7 -7 164 -7 165 101 0 c94 0 101 1 101 20 0 18 -7 20 -74 20 -40 0 -86 2 -102 4 -16 2 -39 2 -51 -1z"/>
<path d="M1637 464 c-4 -4 -7 -34 -7 -67 0 -57 -4 -66 -70 -175 -38 -63 -70 -119 -70 -123 0 -5 11 -9 25 -9 20 0 33 15 77 90 29 49 58 88 63 86 6 -1 33 -40 61 -85 60 -97 74 -110 102 -92 10 6 -5 36 -60 122 -69 108 -73 118 -78 184 -4 52 -9 71 -20 73 -9 1 -19 0 -23 -4z"/>
<path d="M2070 443 c0 -22 3 -23 104 -23 89 0 107 -3 130 -21 31 -24 33 -52 6 -79 -18 -18 -33 -20 -130 -20 l-110 0 0 -25 c0 -25 0 -25 98 -25 92 0 100 -2 121 -24 29 -31 23 -68 -14 -84 -14 -7 -66 -12 -115 -12 -83 0 -90 -1 -90 -20 0 -22 -3 -22 124 -20 57 1 100 7 118 16 46 24 61 84 34 135 -12 24 -12 29 5 46 24 24 34 79 20 115 -16 43 -54 55 -183 59 -117 4 -118 4 -118 -18z"/>
<path d="M2527 464 c-4 -4 -7 -42 -7 -85 l0 -77 101 -4 c92 -3 103 -5 120 -27 21 -25 25 -71 9 -101 -14 -26 -70 -40 -157 -40 -65 0 -73 -2 -73 -19 0 -27 22 -32 114 -25 134 11 176 44 176 140 0 39 -5 51 -34 80 l-33 33 39 55 c22 31 37 60 33 66 -15 24 -44 6 -87 -52 l-46 -63 -55 3 -56 4 -3 56 c-2 42 -7 58 -18 60 -9 1 -19 0 -23 -4z"/>
<path d="M3314 457 c-3 -8 32 -93 77 -190 72 -154 85 -177 105 -177 19 0 29 13 55 67 131 282 144 319 102 311 -10 -2 -40 -56 -82 -147 -36 -79 -70 -142 -76 -141 -5 1 -38 63 -71 137 -56 124 -74 152 -97 153 -4 0 -10 -6 -13 -13z"/>
<path d="M3799 448 c-3 -135 -11 -306 -14 -316 -7 -18 17 -52 36 -52 24 0 29 21 29 118 l0 87 103 -103 c56 -56 110 -102 120 -102 34 0 16 36 -54 106 l-71 71 82 96 c45 53 79 101 75 107 -16 25 -47 5 -116 -75 -40 -47 -76 -85 -80 -85 -21 0 -58 71 -61 116 -3 42 -6 49 -25 52 -18 3 -23 -2 -24 -20z"/>
<path d="M4230 463 c0 -5 -2 -45 -5 -91 -2 -46 -1 -90 2 -98 8 -22 238 -21 247 2 11 29 -4 34 -100 34 l-94 0 0 58 c0 76 -8 102 -31 102 -11 0 -19 -3 -19 -7z"/>
<path d="M4545 460 c-6 -9 20 -70 118 -282 58 -124 72 -124 129 1 22 47 58 124 79 169 45 97 49 125 18 120 -17 -2 -32 -26 -66 -103 -25 -55 -56 -125 -69 -155 l-25 -55 -65 145 c-69 155 -98 194 -119 160z"/>
<path d="M5477 464 c-4 -4 -7 -81 -7 -171 l0 -163 -60 0 c-56 0 -60 -2 -60 -23 0 -23 1 -23 122 -20 67 2 133 3 145 3 16 0 23 6 23 20 0 18 -7 20 -58 20 l-59 0 4 123 c5 138 -5 210 -28 215 -8 1 -18 0 -22 -4z"/>
<path d="M5028 442 c-17 -10 -28 -25 -28 -39 0 -28 10 -29 57 -3 54 29 117 27 149 -5 20 -20 23 -29 14 -45 -13 -25 -38 -38 -108 -56 -90 -24 -125 -71 -102 -139 16 -48 48 -65 124 -65 91 0 138 24 116 60 -7 11 -15 10 -43 -3 -48 -23 -99 -21 -131 4 -20 16 -25 27 -20 43 9 30 27 42 105 66 83 25 109 49 109 103 0 29 -7 45 -29 68 -28 27 -34 29 -108 29 -56 0 -86 -5 -105 -18z"/>
<path d="M2960 275 l0 -25 125 0 c116 0 125 1 125 19 0 24 -35 31 -156 31 -94 0 -94 0 -94 -25z"/>
<path d="M2960 104 c0 -26 1 -27 53 -20 28 3 85 6 125 6 65 0 72 2 72 20 0 19 -7 20 -125 20 l-125 0 0 -26z"/>
<path d="M4230 106 l0 -24 113 4 c61 2 115 4 120 4 4 0 7 9 7 20 0 19 -7 20 -120 20 -120 0 -120 0 -120 -24z"/>
</g>
<g id="layer102" fill="#fffefe" stroke="none">
<path d="M84 457 c-3 -8 -4 -54 -2 -103 3 -81 5 -89 23 -89 18 0 21 8 25 76 l5 77 75 -2 c85 -1 118 -16 151 -69 28 -45 22 -127 -12 -163 -38 -41 -58 -47 -164 -53 -84 -5 -100 -9 -103 -24 -3 -15 7 -17 103 -17 117 0 154 11 197 56 97 105 43 282 -96 314 -63 14 -196 12 -202 -3z"/>
<path d="M514 456 c-5 -14 137 -340 157 -360 14 -16 40 -16 46 0 3 8 10 11 16 7 5 -3 7 -2 4 4 -4 6 27 83 69 173 72 156 81 190 51 190 -21 0 -28 -12 -98 -169 l-63 -143 -23 48 c-13 27 -45 97 -72 157 -48 104 -73 130 -87 93z"/>
<path d="M994 457 c-2 -7 -3 -94 -2 -192 l3 -180 25 0 25 0 3 172 c3 175 -3 213 -34 213 -8 0 -17 -6 -20 -13z"/>
<path d="M1243 462 c-13 -2 -23 -4 -23 -5 -6 -23 -10 -285 -5 -323 6 -48 9 -53 28 -50 12 3 26 5 31 5 4 1 5 75 1 166 l-7 165 101 0 c94 0 101 1 101 20 0 18 -7 20 -82 21 -46 0 -92 2 -103 3 -11 1 -30 0 -42 -2z"/>
<path d="M1637 463 c-4 -3 -7 -33 -7 -66 0 -57 -4 -66 -70 -175 -38 -63 -70 -119 -70 -123 0 -5 11 -9 25 -9 20 0 33 15 77 90 29 49 58 88 63 86 6 -1 33 -40 61 -86 54 -87 72 -104 98 -94 18 7 22 24 6 24 -5 0 -10 5 -10 10 0 6 -8 23 -19 38 -10 15 -39 60 -65 101 -42 68 -46 80 -46 137 0 47 -4 63 -16 68 -19 7 -19 7 -27 -1z"/>
<path d="M2070 443 c0 -22 3 -23 104 -23 95 0 107 -2 132 -23 21 -19 26 -29 20 -50 -9 -39 -36 -48 -151 -49 -103 -2 -105 -2 -105 -25 0 -22 2 -23 98 -23 92 0 100 -2 121 -24 29 -31 23 -68 -14 -84 -14 -7 -66 -12 -115 -12 -83 0 -90 -1 -90 -20 0 -22 -3 -22 124 -20 101 1 141 16 157 58 13 33 5 94 -14 106 -12 8 -10 13 10 30 28 25 39 79 24 119 -16 41 -60 54 -188 59 -112 3 -113 3 -113 -19z"/>
<path d="M2527 464 c-4 -4 -7 -42 -7 -85 l0 -77 101 -4 c92 -3 103 -5 120 -27 21 -25 25 -71 9 -101 -14 -26 -70 -40 -157 -40 -65 0 -73 -2 -73 -19 0 -27 22 -32 114 -25 139 11 183 48 173 148 -3 39 -11 55 -35 77 l-30 27 41 57 c32 46 37 59 26 66 -25 16 -35 10 -81 -53 l-46 -63 -55 3 -56 4 -3 56 c-2 42 -7 58 -18 60 -9 1 -19 0 -23 -4z"/>
<path d="M2960 446 l0 -26 125 0 c118 0 125 1 125 20 0 19 -7 20 -109 20 -60 0 -116 3 -125 6 -12 5 -16 0 -16 -20z"/>
<path d="M3314 457 c-3 -8 32 -93 77 -190 72 -153 86 -177 106 -177 18 0 28 13 54 67 131 282 144 319 102 311 -10 -2 -39 -54 -80 -142 -34 -77 -67 -144 -72 -149 -6 -6 -20 12 -36 49 -84 187 -100 220 -114 232 -19 16 -30 15 -37 -1z"/>
<path d="M3799 443 c-5 -223 -9 -296 -14 -313 -4 -11 -2 -20 4 -20 6 0 11 -7 11 -15 0 -20 36 -19 44 1 3 9 6 55 6 102 l0 87 103 -103 c56 -56 110 -102 120 -102 34 0 16 36 -54 106 l-71 71 82 96 c45 53 79 101 75 107 -16 25 -47 5 -116 -75 -40 -47 -76 -85 -80 -85 -21 0 -58 71 -61 116 -3 42 -6 49 -25 52 -19 3 -23 -1 -24 -25z"/>
<path d="M4230 463 c0 -5 -2 -45 -5 -91 -2 -46 -1 -90 2 -98 8 -22 238 -21 247 2 3 9 4 19 1 23 -2 5 -49 7 -103 7 l-99 -2 5 47 c7 71 -5 119 -28 119 -11 0 -20 -3 -20 -7z"/>
<path d="M4546 461 c-6 -9 6 -42 64 -166 18 -38 47 -102 65 -142 29 -63 36 -71 55 -66 15 4 32 28 55 77 18 39 54 115 79 169 52 112 57 140 25 135 -17 -2 -32 -26 -66 -103 -25 -55 -56 -125 -69 -155 l-25 -55 -35 74 c-19 41 -48 107 -65 148 -32 77 -67 111 -83 84z"/>
<path d="M5477 464 c-4 -4 -7 -81 -7 -171 l0 -163 -60 0 c-56 0 -60 -2 -60 -22 0 -23 1 -23 122 -21 68 2 133 3 146 3 15 0 22 6 22 20 0 18 -7 20 -58 20 l-59 0 4 123 c5 138 -5 210 -28 215 -8 1 -18 0 -22 -4z"/>
<path d="M5028 443 c-17 -11 -28 -26 -28 -40 0 -28 10 -29 57 -3 54 29 117 27 149 -5 20 -20 23 -29 14 -45 -13 -25 -38 -38 -108 -56 -90 -24 -121 -64 -102 -134 14 -53 45 -70 124 -70 91 0 138 24 116 60 -7 11 -15 10 -43 -3 -48 -23 -99 -21 -131 4 -51 40 -24 76 82 108 40 12 81 31 92 43 28 31 27 89 -4 125 -23 26 -30 28 -108 31 -65 2 -89 -1 -110 -15z"/>
<path d="M2960 273 c0 -23 2 -23 125 -23 117 0 125 1 125 19 0 24 -47 32 -167 29 -79 -3 -83 -4 -83 -25z"/>
<path d="M2960 107 c0 -21 4 -24 38 -21 20 1 76 2 125 3 80 1 87 3 87 21 0 19 -7 20 -125 20 -124 0 -125 0 -125 -23z"/>
<path d="M4230 107 c0 -23 1 -23 113 -21 61 2 115 3 120 4 4 0 7 9 7 20 0 19 -7 20 -120 20 -119 0 -120 0 -120 -23z"/>
</g>


</svg>